<?xml version="1.0" encoding="UTF-8" standalone="no"?>
<!-- Generator: Adobe Illustrator 19.0.0, SVG Export Plug-In . SVG Version: 6.00 Build 0)  -->

<svg
   version="1.1"
   id="Capa_1"
   x="0px"
   y="0px"
   viewBox="0 0 512.002 512.002"
   style="enable-background:new 0 0 512.002 512.002;"
   xml:space="preserve"
   sodipodi:docname="quality.svg"
   inkscape:version="1.3.2 (091e20e, 2023-11-25, custom)"
   xmlns:inkscape="http://www.inkscape.org/namespaces/inkscape"
   xmlns:sodipodi="http://sodipodi.sourceforge.net/DTD/sodipodi-0.dtd"
   xmlns:xlink="http://www.w3.org/1999/xlink"
   xmlns="http://www.w3.org/2000/svg"
   xmlns:svg="http://www.w3.org/2000/svg"><defs
   id="defs23"><linearGradient
     id="linearGradient41"
     inkscape:collect="always"><stop
       style="stop-color:#3b82f6;stop-opacity:1;"
       offset="0"
       id="stop41" /><stop
       style="stop-color:#2563eb;stop-opacity:1;"
       offset="1"
       id="stop42" /></linearGradient><linearGradient
     inkscape:collect="always"
     xlink:href="#linearGradient41"
     id="linearGradient42"
     x1="0.0022574858"
     y1="256.00027"
     x2="511.99982"
     y2="256.00027"
     gradientUnits="userSpaceOnUse" /></defs><sodipodi:namedview
   id="namedview23"
   pagecolor="#505050"
   bordercolor="#eeeeee"
   borderopacity="1"
   inkscape:showpageshadow="0"
   inkscape:pageopacity="0"
   inkscape:pagecheckerboard="0"
   inkscape:deskcolor="#505050"
   inkscape:zoom="0.56140191"
   inkscape:cx="100.64091"
   inkscape:cy="373.17294"
   inkscape:window-width="1920"
   inkscape:window-height="1009"
   inkscape:window-x="-8"
   inkscape:window-y="-8"
   inkscape:window-maximized="1"
   inkscape:current-layer="Capa_1" />



<g
   id="g40"
   style="fill:url(#linearGradient42);fill-rule:nonzero"><g
     id="g2"
     style="fill:url(#linearGradient42);fill-opacity:1;fill-rule:nonzero">
	<g
   id="g1"
   style="fill:url(#linearGradient42);fill-opacity:1;fill-rule:nonzero">
		<path
   d="M509.76,248.118c-0.029-0.046-0.053-0.094-0.083-0.141l-76.001-120.002c-2.8-4.421-7.636-6.974-12.672-6.974h-0.045    H91.044h-0.045c-5.213,0-9.973,2.711-12.672,6.974c-0.771,1.217-75.674,119.48-76.084,120.143    c-0.084,0.136-0.163,0.275-0.243,0.414c-3.4,5.912-2.355,13.273,2.335,18.018c0.019,0.02,0.036,0.041,0.056,0.06l241.003,241.003    c0.038,0.038,0.081,0.07,0.119,0.108c5.793,5.669,15.106,5.743,20.975,0c0.039-0.038,0.081-0.069,0.119-0.108l241.003-241.003    c0.019-0.02,0.036-0.041,0.056-0.06C512.523,261.639,513.408,254.024,509.76,248.118z M393.939,151.002l-49.063,78.5l-58.875-78.5    H393.939z M316.002,241.003H196l60.001-80.001L316.002,241.003z M226.001,151.002l-58.875,78.5l-49.063-78.5H226.001z     M90.915,164.169l48.021,76.834H42.253L90.915,164.169z M51.211,271.004H155.59l62.212,166.589L51.211,271.004z M256,454.13    l-68.387-183.127h136.775L256,454.13z M294.201,437.593l62.212-166.589H460.79L294.201,437.593z M373.066,241.003l48.022-76.834    l48.661,76.834H373.066z"
   id="path1"
   style="fill:url(#linearGradient42);fill-opacity:1;fill-rule:nonzero" />
	</g>
</g><g
     id="g4"
     style="fill:url(#linearGradient42);fill-opacity:1;fill-rule:nonzero">
	<g
   id="g3"
   style="fill:url(#linearGradient42);fill-opacity:1;fill-rule:nonzero">
		<path
   d="M256.001,0c-8.284,0-15,6.716-15,15v60.001c0,8.284,6.716,15,15,15c8.284,0,15-6.716,15-15V15    C271.001,6.716,264.285,0,256.001,0z"
   id="path2"
   style="fill:url(#linearGradient42);fill-opacity:1;fill-rule:nonzero" />
	</g>
</g><g
     id="g6"
     style="fill:url(#linearGradient42);fill-opacity:1;fill-rule:nonzero">
	<g
   id="g5"
   style="fill:url(#linearGradient42);fill-opacity:1;fill-rule:nonzero">
		<path
   d="M195.357,68.617L152.93,41.19c-6.958-4.498-16.243-2.503-20.741,4.454c-4.497,6.958-2.503,16.243,4.454,20.741    l42.428,27.427c6.96,4.499,16.245,2.501,20.741-4.454C204.309,82.4,202.314,73.115,195.357,68.617z"
   id="path4"
   style="fill:url(#linearGradient42);fill-opacity:1;fill-rule:nonzero" />
	</g>
</g><g
     id="g8"
     style="fill:url(#linearGradient42);fill-opacity:1;fill-rule:nonzero">
	<g
   id="g7"
   style="fill:url(#linearGradient42);fill-opacity:1;fill-rule:nonzero">
		<path
   d="M379.814,45.644c-4.498-6.957-13.783-8.951-20.741-4.454l-42.428,27.427c-6.957,4.498-8.951,13.783-4.454,20.741    c4.494,6.952,13.777,8.954,20.741,4.454l42.428-27.427C382.317,61.887,384.311,52.602,379.814,45.644z"
   id="path6"
   style="fill:url(#linearGradient42);fill-opacity:1;fill-rule:nonzero" />
	</g>
</g></g>
<g
   id="g9">
</g>
<g
   id="g10">
</g>
<g
   id="g11">
</g>
<g
   id="g12">
</g>
<g
   id="g13">
</g>
<g
   id="g14">
</g>
<g
   id="g15">
</g>
<g
   id="g16">
</g>
<g
   id="g17">
</g>
<g
   id="g18">
</g>
<g
   id="g19">
</g>
<g
   id="g20">
</g>
<g
   id="g21">
</g>
<g
   id="g22">
</g>
<g
   id="g23"
   style="display:inline">
</g>
</svg>
