<?xml version="1.0" encoding="UTF-8" standalone="no"?>
<!-- Generator: Adobe Illustrator 19.0.0, SVG Export Plug-In . SVG Version: 6.00 Build 0)  -->

<svg
   version="1.1"
   id="Layer_1"
   x="0px"
   y="0px"
   viewBox="0 0 512 512"
   style="enable-background:new 0 0 512 512;"
   xml:space="preserve"
   sodipodi:docname="right-arrow.svg"
   inkscape:version="1.3.2 (091e20e, 2023-11-25, custom)"
   xmlns:inkscape="http://www.inkscape.org/namespaces/inkscape"
   xmlns:sodipodi="http://sodipodi.sourceforge.net/DTD/sodipodi-0.dtd"
   xmlns:xlink="http://www.w3.org/1999/xlink"
   xmlns="http://www.w3.org/2000/svg"
   xmlns:svg="http://www.w3.org/2000/svg"><defs
   id="defs19"><linearGradient
     id="linearGradient22"
     inkscape:collect="always"><stop
       style="stop-color:#3b82f6;stop-opacity:1;"
       offset="0"
       id="stop22" /><stop
       style="stop-color:#2563eb;stop-opacity:1;"
       offset="1"
       id="stop23" /></linearGradient><linearGradient
     inkscape:collect="always"
     xlink:href="#linearGradient22"
     id="linearGradient23"
     x1="0"
     y1="256"
     x2="512"
     y2="256"
     gradientUnits="userSpaceOnUse" /></defs><sodipodi:namedview
   id="namedview19"
   pagecolor="#505050"
   bordercolor="#eeeeee"
   borderopacity="1"
   inkscape:showpageshadow="0"
   inkscape:pageopacity="0"
   inkscape:pagecheckerboard="0"
   inkscape:deskcolor="#505050"
   inkscape:zoom="0.56140411"
   inkscape:cx="-81.046788"
   inkscape:cy="218.20289"
   inkscape:window-width="1920"
   inkscape:window-height="1009"
   inkscape:window-x="-8"
   inkscape:window-y="-8"
   inkscape:window-maximized="1"
   inkscape:current-layer="Layer_1" />

<g
   id="g22"
   style="fill:url(#linearGradient23)"><g
     id="g2"
     style="fill:url(#linearGradient23)">
	<g
   id="g1"
   style="fill:url(#linearGradient23)">
		<path
   d="M256,0C114.509,0,0,114.497,0,256c0,141.491,114.497,256,256,256c141.491,0,256-114.497,256-256    C512,114.509,397.503,0,256,0z M256,477.867c-122.337,0-221.867-99.529-221.867-221.867S133.663,34.133,256,34.133    S477.867,133.663,477.867,256S378.337,477.867,256,477.867z"
   id="path1"
   style="fill:url(#linearGradient23)" />
	</g>
</g><g
     id="g4"
     style="fill:url(#linearGradient23)">
	<g
   id="g3"
   style="fill:url(#linearGradient23)">
		<path
   d="M386.939,242.544L264.81,147.266c-11.188-8.729-27.565-0.729-27.565,13.457v47.919H135.557    c-9.425,0-17.067,7.641-17.067,17.067v60.584c0,9.425,7.641,17.067,17.067,17.067h101.688v47.919    c0,14.285,16.455,22.121,27.565,13.456l122.129-95.277C395.701,262.622,395.682,249.363,386.939,242.544z M271.379,316.317    v-30.025c0-9.425-7.641-17.067-17.067-17.067H152.625v-26.451h101.688c9.425,0,17.067-7.641,17.067-17.067v-30.025L348.696,256    L271.379,316.317z"
   id="path2"
   style="fill:url(#linearGradient23)" />
	</g>
</g></g>
<g
   id="g5">
</g>
<g
   id="g6">
</g>
<g
   id="g7">
</g>
<g
   id="g8">
</g>
<g
   id="g9">
</g>
<g
   id="g10">
</g>
<g
   id="g11">
</g>
<g
   id="g12">
</g>
<g
   id="g13">
</g>
<g
   id="g14">
</g>
<g
   id="g15">
</g>
<g
   id="g16">
</g>
<g
   id="g17">
</g>
<g
   id="g18">
</g>
<g
   id="g19">
</g>
</svg>
