<?xml version="1.0" encoding="UTF-8" standalone="no"?>
<svg
   id="Capa_1"
   enable-background="new 0 0 512 512"
   height="512"
   viewBox="0 0 512 512"
   width="512"
   version="1.1"
   sodipodi:docname="warranty.svg"
   inkscape:version="1.3.2 (091e20e, 2023-11-25, custom)"
   xmlns:inkscape="http://www.inkscape.org/namespaces/inkscape"
   xmlns:sodipodi="http://sodipodi.sourceforge.net/DTD/sodipodi-0.dtd"
   xmlns:xlink="http://www.w3.org/1999/xlink"
   xmlns="http://www.w3.org/2000/svg"
   xmlns:svg="http://www.w3.org/2000/svg">
  <defs
     id="defs6">
    <linearGradient
       id="linearGradient7"
       inkscape:collect="always">
      <stop
         style="stop-color:#3b82f6;stop-opacity:1;"
         offset="0"
         id="stop7" />
      <stop
         style="stop-color:#2563eb;stop-opacity:1;"
         offset="1"
         id="stop8" />
    </linearGradient>
    <linearGradient
       inkscape:collect="always"
       xlink:href="#linearGradient7"
       id="linearGradient8"
       x1="14.289"
       y1="256"
       x2="497.712"
       y2="256"
       gradientUnits="userSpaceOnUse" />
  </defs>
  <sodipodi:namedview
     id="namedview6"
     pagecolor="#505050"
     bordercolor="#eeeeee"
     borderopacity="1"
     inkscape:showpageshadow="0"
     inkscape:pageopacity="0"
     inkscape:pagecheckerboard="0"
     inkscape:deskcolor="#505050"
     inkscape:zoom="1.5878906"
     inkscape:cx="256"
     inkscape:cy="256"
     inkscape:window-width="1920"
     inkscape:window-height="1009"
     inkscape:window-x="-8"
     inkscape:window-y="-8"
     inkscape:window-maximized="1"
     inkscape:current-layer="Capa_1" />
  <g
     id="g6"
     style="fill:url(#linearGradient8)">
    <path
       d="m90.15 179.816h105.656c8.284 0 15-6.716 15-15v-60.216c0-8.284-6.716-15-15-15h-105.656c-8.284 0-15 6.716-15 15v60.217c0 8.284 6.716 14.999 15 14.999zm15-60.216h75.656v30.217h-75.656z"
       id="path1"
       style="fill:url(#linearGradient8)" />
    <path
       d="m195.806 330.255h-105.656c-8.284 0-15 6.716-15 15v60.431c0 8.284 6.716 15 15 15h105.656c8.284 0 15-6.716 15-15v-60.431c0-8.284-6.716-15-15-15zm-15 60.431h-75.656v-30.431h75.656z"
       id="path2"
       style="fill:url(#linearGradient8)" />
    <path
       d="m254.632 119.6h77.218c8.284 0 15-6.716 15-15s-6.716-15-15-15h-77.218c-8.284 0-15 6.716-15 15s6.716 15 15 15z"
       id="path3"
       style="fill:url(#linearGradient8)" />
    <path
       d="m331.85 390.686h-77.218c-8.284 0-15 6.716-15 15s6.716 15 15 15h77.218c8.284 0 15-6.716 15-15s-6.716-15-15-15z"
       id="path4"
       style="fill:url(#linearGradient8)" />
    <path
       d="m492.858 168.347c-1.177-5.179-5.005-9.35-10.064-10.965l-75.083-23.978v-118.404c0-8.284-6.716-15-15-15h-363.422c-8.284 0-15 6.716-15 15v482c0 8.284 6.716 15 15 15h363.423c8.284 0 15-6.716 15-15v-120.966c25.8-16.524 47.511-38.981 63.097-65.42 17.6-29.856 26.903-64.051 26.903-98.888-.001-14.616-1.633-29.21-4.854-43.379zm-448.569 313.653v-452h333.423v103.404l-51.393 16.412h-71.687c-8.284 0-15 6.716-15 15s6.716 15 15 15h35.697c-1.641 9.965-2.506 20.081-2.593 30.218h-197.586c-8.284 0-15 6.716-15 15s6.716 15 15 15h199.646c1.5 10.254 3.8 20.359 6.895 30.217h-206.541c-8.284 0-15 6.716-15 15s6.716 15 15 15h218.794c1.786 3.504 3.667 6.965 5.67 10.362 15.587 26.44 37.297 48.897 63.097 65.42v105.967zm348.422-131.963c-46.475-30.328-75-82.538-75-138.312 0-9.551.822-19.086 2.448-28.45l72.552-23.169 72.552 23.169c1.626 9.364 2.448 18.9 2.448 28.45 0 55.774-28.525 107.983-75 138.312z"
       id="path5"
       style="fill:url(#linearGradient8)" />
    <path
       d="m412.175 224.088-32.005 32.005-6.922-6.923c-5.859-5.858-15.355-5.858-21.213 0-5.858 5.857-5.858 15.354 0 21.213l17.529 17.529c2.813 2.813 6.628 4.394 10.607 4.394 3.978 0 7.793-1.58 10.606-4.394l42.611-42.611c5.858-5.857 5.858-15.355 0-21.213s-15.356-5.858-21.213 0z"
       id="path6"
       style="fill:url(#linearGradient8)" />
  </g>
</svg>
