<?xml version="1.0" encoding="UTF-8" standalone="no"?>
<!-- Generator: Adobe Illustrator 19.0.0, SVG Export Plug-In . SVG Version: 6.00 Build 0)  -->

<svg
   version="1.1"
   id="Layer_1"
   x="0px"
   y="0px"
   viewBox="0 0 329.954 329.954"
   style="enable-background:new 0 0 329.954 329.954;"
   xml:space="preserve"
   sodipodi:docname="checked.svg"
   inkscape:version="1.3.2 (091e20e, 2023-11-25, custom)"
   xmlns:inkscape="http://www.inkscape.org/namespaces/inkscape"
   xmlns:sodipodi="http://sodipodi.sourceforge.net/DTD/sodipodi-0.dtd"
   xmlns:xlink="http://www.w3.org/1999/xlink"
   xmlns="http://www.w3.org/2000/svg"
   xmlns:svg="http://www.w3.org/2000/svg"><defs
   id="defs15"><linearGradient
     id="linearGradient1"
     inkscape:collect="always"><stop
       style="stop-color:#0084ff;stop-opacity:1;"
       offset="0"
       id="stop1" /><stop
       style="stop-color:#005aff;stop-opacity:1;"
       offset="1"
       id="stop2" /></linearGradient><linearGradient
     inkscape:collect="always"
     xlink:href="#linearGradient1"
     id="linearGradient2"
     x1="0.00025"
     y1="164.97694"
     x2="329.954"
     y2="164.97694"
     gradientUnits="userSpaceOnUse" /></defs><sodipodi:namedview
   id="namedview15"
   pagecolor="#505050"
   bordercolor="#eeeeee"
   borderopacity="1"
   inkscape:showpageshadow="0"
   inkscape:pageopacity="0"
   inkscape:pagecheckerboard="0"
   inkscape:deskcolor="#505050"
   inkscape:zoom="2.4639798"
   inkscape:cx="165.38285"
   inkscape:cy="165.7887"
   inkscape:window-width="1920"
   inkscape:window-height="1009"
   inkscape:window-x="1912"
   inkscape:window-y="-8"
   inkscape:window-maximized="1"
   inkscape:current-layer="Layer_1" />
<path
   id="XMLID_224_"
   d="M325.56,73.335l-42.427-42.426c-5.857-5.857-15.355-5.858-21.213,0L110.461,182.37l-42.428-42.428  c-2.813-2.813-6.628-4.394-10.606-4.394c-3.978,0-7.794,1.581-10.607,4.394L4.393,182.369c-5.857,5.858-5.857,15.355,0,21.213  l95.457,95.463c2.813,2.813,6.629,4.393,10.607,4.393c3.978,0,7.794-1.581,10.606-4.393L325.56,94.548  c2.813-2.813,4.394-6.628,4.394-10.606C329.954,79.963,328.373,76.148,325.56,73.335z M110.458,267.225l-74.245-74.249  l21.214-21.214l42.428,42.428c2.813,2.813,6.628,4.394,10.606,4.394c3.979,0,7.793-1.581,10.607-4.394L272.527,62.728l21.213,21.213  L110.458,267.225z"
   style="fill:url(#linearGradient2);fill-opacity:1" />
<g
   id="g1">
</g>
<g
   id="g2">
</g>
<g
   id="g3">
</g>
<g
   id="g4">
</g>
<g
   id="g5">
</g>
<g
   id="g6">
</g>
<g
   id="g7">
</g>
<g
   id="g8">
</g>
<g
   id="g9">
</g>
<g
   id="g10">
</g>
<g
   id="g11">
</g>
<g
   id="g12">
</g>
<g
   id="g13">
</g>
<g
   id="g14">
</g>
<g
   id="g15">
</g>
</svg>
