<svg id="Capa_1" enable-background="new 0 0 511.617 511.617" height="512" viewBox="0 0 511.617 511.617" width="512" xmlns="http://www.w3.org/2000/svg"><g><path d="m434.871 193.047-31.65-27.5c-5.443-4.852-14.233-4.853-19.676 0l-31.651 27.5c-6.254 5.434-6.919 14.908-1.485 21.161 2.966 3.414 7.137 5.162 11.33 5.162 3.488 0 6.992-1.21 9.832-3.677l6.813-5.919v86.034c0 8.284 6.716 15 15 15s15-6.716 15-15v-86.033l6.812 5.919c6.253 5.434 15.729 4.769 21.161-1.485s4.767-15.729-1.486-21.162z"/><path d="m262.278 364.527v-243.527c0-8.284-6.716-15-15-15s-15 6.716-15 15v243.527c-17.368 6.185-29.839 22.785-29.839 42.25 0 24.725 20.115 44.84 44.839 44.84s44.839-20.115 44.839-44.84c0-19.466-12.471-36.066-29.839-42.25zm-15 57.089c-8.182 0-14.839-6.657-14.839-14.84s6.657-14.839 14.839-14.839 14.839 6.656 14.839 14.839-6.657 14.84-14.839 14.84z"/><path d="m322.278 74.999c0-41.354-33.645-74.999-75-74.999s-75 33.645-75 74.999v258.593c-19.04 19.526-29.839 45.829-29.839 73.185 0 28.735 11.434 55.561 32.195 75.533 19.739 18.99 45.374 29.308 72.588 29.308 1.39 0 2.787-.027 4.184-.081 55.14-2.135 99.364-47.034 100.68-102.219.676-28.329-10.119-55.558-29.809-75.729v-258.59zm-72.032 406.559c-20.542.796-39.999-6.615-54.813-20.867-14.828-14.265-22.994-33.412-22.994-53.914 0-21.157 9.064-41.44 24.868-55.65 3.164-2.845 4.971-6.899 4.971-11.154v-264.974c0-24.812 20.187-44.999 45-44.999s45 20.187 45 44.999v264.974c0 4.255 1.807 8.311 4.972 11.155 16.311 14.663 25.367 35.612 24.846 57.475-.94 39.385-32.5 71.432-71.85 72.955z"/><path d="m126.584 280.808h-40c-8.284 0-15 6.716-15 15s6.716 15 15 15h40c8.284 0 15-6.716 15-15 0-8.285-6.715-15-15-15z"/><path d="m126.584 220.808h-40c-8.284 0-15 6.716-15 15s6.716 15 15 15h40c8.284 0 15-6.716 15-15s-6.715-15-15-15z"/><path d="m126.584 160.808h-40c-8.284 0-15 6.716-15 15s6.716 15 15 15h40c8.284 0 15-6.716 15-15s-6.715-15-15-15z"/><path d="m126.584 100.808h-40c-8.284 0-15 6.716-15 15s6.716 15 15 15h40c8.284 0 15-6.716 15-15s-6.715-15-15-15z"/></g></svg>