<?xml version="1.0" encoding="UTF-8" standalone="no"?>
<!-- Generator: Adobe Illustrator 19.0.0, SVG Export Plug-In . SVG Version: 6.00 Build 0)  -->

<svg
   version="1.1"
   id="Layer_1"
   x="0px"
   y="0px"
   viewBox="0 0 512 512"
   style="enable-background:new 0 0 512 512;"
   xml:space="preserve"
   sodipodi:docname="left-arrow.svg"
   inkscape:version="1.3.2 (091e20e, 2023-11-25, custom)"
   xmlns:inkscape="http://www.inkscape.org/namespaces/inkscape"
   xmlns:sodipodi="http://sodipodi.sourceforge.net/DTD/sodipodi-0.dtd"
   xmlns:xlink="http://www.w3.org/1999/xlink"
   xmlns="http://www.w3.org/2000/svg"
   xmlns:svg="http://www.w3.org/2000/svg"><defs
   id="defs19"><linearGradient
     id="linearGradient1"
     inkscape:collect="always"><stop
       style="stop-color:#005aff;stop-opacity:1;"
       offset="0"
       id="stop2" /><stop
       style="stop-color:#0084ff;stop-opacity:1;"
       offset="1"
       id="stop1" /></linearGradient><linearGradient
     inkscape:collect="always"
     xlink:href="#linearGradient1"
     id="linearGradient2"
     x1="0"
     y1="256"
     x2="512"
     y2="256"
     gradientUnits="userSpaceOnUse" /></defs><sodipodi:namedview
   id="namedview19"
   pagecolor="#505050"
   bordercolor="#eeeeee"
   borderopacity="1"
   inkscape:showpageshadow="0"
   inkscape:pageopacity="0"
   inkscape:pagecheckerboard="0"
   inkscape:deskcolor="#505050"
   inkscape:zoom="0.56140411"
   inkscape:cx="192.37479"
   inkscape:cy="181.68731"
   inkscape:window-width="958"
   inkscape:window-height="1000"
   inkscape:window-x="1913"
   inkscape:window-y="0"
   inkscape:window-maximized="0"
   inkscape:current-layer="Layer_1" />

<g
   id="g22"
   style="fill:url(#linearGradient2);fill-opacity:1"
   transform="matrix(-1,0,0,1,512,0)"><g
     id="g2"
     style="fill:url(#linearGradient2);fill-opacity:1">
	<g
   id="g1"
   style="fill:url(#linearGradient2);fill-opacity:1">
		<path
   d="M 256,0 C 114.509,0 0,114.497 0,256 0,397.491 114.497,512 256,512 397.491,512 512,397.503 512,256 512,114.509 397.503,0 256,0 Z m 0,477.867 C 133.663,477.867 34.133,378.338 34.133,256 34.133,133.662 133.663,34.133 256,34.133 c 122.337,0 221.867,99.53 221.867,221.867 0,122.337 -99.53,221.867 -221.867,221.867 z"
   id="path1"
   style="fill:url(#linearGradient2);fill-opacity:1" />
	</g>
</g><g
     id="g4"
     style="fill:url(#linearGradient2);fill-opacity:1">
	<g
   id="g3"
   style="fill:url(#linearGradient2);fill-opacity:1">
		<path
   d="M 386.939,242.544 264.81,147.266 c -11.188,-8.729 -27.565,-0.729 -27.565,13.457 v 47.919 H 135.557 c -9.425,0 -17.067,7.641 -17.067,17.067 v 60.584 c 0,9.425 7.641,17.067 17.067,17.067 h 101.688 v 47.919 c 0,14.285 16.455,22.121 27.565,13.456 l 122.129,-95.277 c 8.762,-6.836 8.743,-20.095 0,-26.914 z m -115.56,73.773 v -30.025 c 0,-9.425 -7.641,-17.067 -17.067,-17.067 H 152.625 v -26.451 h 101.688 c 9.425,0 17.067,-7.641 17.067,-17.067 V 195.682 L 348.696,256 Z"
   id="path2"
   style="fill:url(#linearGradient2);fill-opacity:1" />
	</g>
</g></g>
<g
   id="g5">
</g>
<g
   id="g6">
</g>
<g
   id="g7">
</g>
<g
   id="g8">
</g>
<g
   id="g9">
</g>
<g
   id="g10">
</g>
<g
   id="g11">
</g>
<g
   id="g12">
</g>
<g
   id="g13">
</g>
<g
   id="g14">
</g>
<g
   id="g15">
</g>
<g
   id="g16">
</g>
<g
   id="g17">
</g>
<g
   id="g18">
</g>
<g
   id="g19">
</g>
</svg>
