<svg id="Capa_1" enable-background="new 0 0 512 512" height="512" viewBox="0 0 512 512" width="512" xmlns="http://www.w3.org/2000/svg"><g><path d="m196 452h120c8.284 0 15-6.716 15-15v-60c0-8.284-6.716-15-15-15h-120c-8.284 0-15 6.716-15 15v60c0 8.284 6.716 15 15 15zm15-60h90v30h-90z"/><path d="m502.708 362.583-111.708-55.854v-191.729c0-30.376-24.624-55-55-55h-15v-25c0-19.33-15.67-35-35-35h-60c-19.33 0-35 15.67-35 35v25h-15c-30.376 0-55 24.624-55 55v56.729l-98.292-49.146c-7.41-3.705-16.42-.702-20.125 6.708-3.705 7.41-.702 16.42 6.708 20.125l111.709 55.855v251.729c0 30.376 24.624 55 55 55h160c30.376 0 55-24.624 55-55v-116.729l98.292 49.146c7.41 3.705 16.42.702 20.125-6.708 3.704-7.41.701-16.42-6.709-20.126zm-281.708-327.583c0-2.757 2.243-5 5-5h60c2.757 0 5 2.243 5 5v25h-70zm140 422c0 13.785-11.215 25-25 25h-160c-13.785 0-25-11.215-25-25v-236.729l210 105zm0-165.271-210-105v-71.729c0-13.785 11.215-25 25-25h160c13.785 0 25 11.215 25 25z"/></g></svg>