<?xml version="1.0" encoding="UTF-8" standalone="no"?>
<svg
   id="Capa_1"
   enable-background="new 0 0 511.93 511.93"
   height="512"
   viewBox="0 0 511.93 511.93"
   width="512"
   version="1.1"
   sodipodi:docname="money-bag.svg"
   inkscape:version="1.3.2 (091e20e, 2023-11-25, custom)"
   xmlns:inkscape="http://www.inkscape.org/namespaces/inkscape"
   xmlns:sodipodi="http://sodipodi.sourceforge.net/DTD/sodipodi-0.dtd"
   xmlns:xlink="http://www.w3.org/1999/xlink"
   xmlns="http://www.w3.org/2000/svg"
   xmlns:svg="http://www.w3.org/2000/svg">
  <defs
     id="defs2">
    <linearGradient
       id="linearGradient2"
       inkscape:collect="always">
      <stop
         style="stop-color:#0084ff;stop-opacity:1;"
         offset="0"
         id="stop2" />
      <stop
         style="stop-color:#005aff;stop-opacity:1;"
         offset="1"
         id="stop3" />
    </linearGradient>
    <linearGradient
       inkscape:collect="always"
       xlink:href="#linearGradient2"
       id="linearGradient3"
       x1="52.881081"
       y1="255.96437"
       x2="459.04967"
       y2="255.96437"
       gradientUnits="userSpaceOnUse" />
  </defs>
  <sodipodi:namedview
     id="namedview2"
     pagecolor="#505050"
     bordercolor="#eeeeee"
     borderopacity="1"
     inkscape:showpageshadow="0"
     inkscape:pageopacity="0"
     inkscape:pagecheckerboard="0"
     inkscape:deskcolor="#505050"
     inkscape:zoom="1.5878906"
     inkscape:cx="255.68512"
     inkscape:cy="256"
     inkscape:window-width="1920"
     inkscape:window-height="1009"
     inkscape:window-x="1912"
     inkscape:window-y="-8"
     inkscape:window-maximized="1"
     inkscape:current-layer="Capa_1" />
  <g
     id="g2"
     style="fill:url(#linearGradient3)">
    <path
       d="m420.075 251.188c-22.8-26.061-49.867-51.839-82.434-80.883 1.293-2.217 2.046-4.786 2.046-7.538v-7.791l53.959 21.707c1.836.738 3.729 1.088 5.594 1.088 5.942 0 11.567-3.555 13.921-9.406 3.092-7.686-.632-16.422-8.317-19.514l-65.156-26.21v-19.859c0-7.031-4.844-12.916-11.373-14.54l32.501-62.521c2.637-5.072 2.161-11.202-1.227-15.807s-9.094-6.882-14.726-5.877c-.463.083-46.64 8.174-84.878.09-42.651-9.019-96.54-.5-98.813-.133-4.737.765-8.822 3.75-10.99 8.032s-2.157 9.341.03 13.613l32.305 63.089c-5.715 2.118-9.796 7.602-9.796 14.053v20.213l-59.076 26.047c-7.58 3.342-11.016 12.196-7.674 19.777 2.475 5.612 7.971 8.952 13.733 8.952 2.021 0 4.075-.411 6.044-1.279l46.973-20.711v6.986c0 2.965.872 5.722 2.357 8.049-3.894 3.521-7.787 7.025-11.632 10.479-23.534 21.137-47.869 42.993-70.198 68.03-41.981 47.071-52.052 112.04-26.282 169.552 25.718 57.397 80.786 93.053 143.713 93.053h90.335c62.688 0 117.748-35.52 143.695-92.697 25.782-56.817 16.344-121.208-24.634-168.044zm-166.295-217.71c23.397 4.947 48.621 4.754 67.403 3.438l-26.442 50.865h-79.005l-28.954-56.545c18.128-1.52 44.888-2.432 66.998 2.242zm55.908 84.304v29.985h-106.967v-29.985zm107.701 289.053c-9.932 21.886-25.465 40.425-44.922 53.614-20.731 14.053-45.44 21.48-71.454 21.48h-90.335c-26.14 0-50.903-7.453-71.615-21.552-19.418-13.219-34.882-31.811-44.721-53.768-9.857-22-13.443-45.978-10.37-69.343 3.277-24.917 14.227-48.422 31.664-67.974 21.223-23.796 44.93-45.088 67.855-65.679 9.375-8.42 19.009-17.094 28.391-25.847h88.909c39.427 34.604 71.107 63.915 96.706 93.175 17.008 19.439 27.6 42.728 30.632 67.347 2.844 23.095-.87 46.798-10.74 68.547z"
       id="path1"
       style="fill:url(#linearGradient3)" />
    <path
       d="m262.746 243.715c-31.607 0-59.078 19.869-72.66 48.86h-11.767c-8.284 0-15 6.716-15 15s6.716 15 15 15h3.347c-.41 3.644-.624 7.354-.624 11.118s.214 7.474.624 11.118h-3.347c-8.284 0-15 6.716-15 15s6.716 15 15 15h11.767c13.582 28.991 41.053 48.86 72.66 48.86 15.678 0 30.906-4.896 44.042-14.158 6.77-4.774 8.389-14.133 3.614-20.903-4.774-6.771-14.134-8.39-20.903-3.615-8.048 5.675-17.3 8.675-26.753 8.675-14.799 0-28.155-7.261-37.589-18.86h26.067c8.284 0 15-6.716 15-15s-6.716-15-15-15h-39.277c-.585-3.605-.905-7.318-.905-11.118s.32-7.513.905-11.118h48.048c8.284 0 15-6.716 15-15s-6.716-15-15-15h-34.838c9.434-11.599 22.79-18.86 37.588-18.86 11.703 0 22.751 4.448 31.95 12.862 6.111 5.59 15.601 5.168 21.192-.944 5.591-6.113 5.168-15.601-.944-21.192-14.611-13.364-33.148-20.725-52.197-20.725z"
       id="path2"
       style="fill:url(#linearGradient3)" />
  </g>
</svg>
