<?xml version="1.0" encoding="iso-8859-1"?>
<!-- Generator: Adobe Illustrator 21.0.0, SVG Export Plug-In . SVG Version: 6.00 Build 0)  -->
<svg xmlns="http://www.w3.org/2000/svg" xmlns:xlink="http://www.w3.org/1999/xlink" version="1.1" id="Capa_1" x="0px" y="0px" viewBox="0 0 512 512" style="enable-background:new 0 0 512 512;" xml:space="preserve" width="512" height="512">
<g>
	<path d="M324.182,34.857c-4.82-2.629-10.69-2.414-15.305,0.559l-176.29,113.669L15,149.086c-8.284,0-15,6.605-15,14.889v180   c0,8.284,6.716,15,15,15h117.458L308.68,476.456c4.609,3.073,10.529,3.351,15.398,0.744c4.877-2.61,7.922-7.693,7.922-13.225   V48.026C332,42.536,329.001,37.485,324.182,34.857z M30,178.975h92v150.1H30V178.975z M302,435.947l-150-100V172.155l150-96.624   V435.947z"/>
	<path d="M458.213,253.975l49.394-49.394c5.858-5.858,5.858-15.355,0-21.213c-5.857-5.858-15.355-5.858-21.213,0L437,232.762   l-49.394-49.394c-5.857-5.858-15.355-5.858-21.213,0c-5.858,5.858-5.858,15.355,0,21.213l49.394,49.394l-49.394,49.394   c-5.858,5.858-5.858,15.355,0,21.213c5.857,5.858,15.355,5.859,21.213,0L437,275.188l49.394,49.394   c5.857,5.858,15.355,5.859,21.213,0c5.858-5.858,5.858-15.355,0-21.213L458.213,253.975z"/>
</g>















</svg>
