<?xml version="1.0" encoding="UTF-8" standalone="no"?>
<!-- Generator: Adobe Illustrator 19.0.0, SVG Export Plug-In . SVG Version: 6.00 Build 0)  -->

<svg
   version="1.1"
   id="Capa_1"
   x="0px"
   y="0px"
   viewBox="0 0 512 512"
   style="enable-background:new 0 0 512 512;"
   xml:space="preserve"
   sodipodi:docname="placeholder.svg"
   inkscape:version="1.3.2 (091e20e, 2023-11-25, custom)"
   xmlns:inkscape="http://www.inkscape.org/namespaces/inkscape"
   xmlns:sodipodi="http://sodipodi.sourceforge.net/DTD/sodipodi-0.dtd"
   xmlns:xlink="http://www.w3.org/1999/xlink"
   xmlns="http://www.w3.org/2000/svg"
   xmlns:svg="http://www.w3.org/2000/svg"><defs
   id="defs21"><linearGradient
     id="linearGradient22"
     inkscape:collect="always"><stop
       style="stop-color:#0084ff;stop-opacity:1;"
       offset="0"
       id="stop22" /><stop
       style="stop-color:#005aff;stop-opacity:1;"
       offset="1"
       id="stop23" /></linearGradient><linearGradient
     inkscape:collect="always"
     xlink:href="#linearGradient22"
     id="linearGradient23"
     x1="0"
     y1="256"
     x2="512"
     y2="256"
     gradientUnits="userSpaceOnUse" /></defs><sodipodi:namedview
   id="namedview21"
   pagecolor="#505050"
   bordercolor="#eeeeee"
   borderopacity="1"
   inkscape:showpageshadow="0"
   inkscape:pageopacity="0"
   inkscape:pagecheckerboard="0"
   inkscape:deskcolor="#505050"
   inkscape:zoom="1.5878906"
   inkscape:cx="255.68512"
   inkscape:cy="256"
   inkscape:window-width="1920"
   inkscape:window-height="1009"
   inkscape:window-x="1912"
   inkscape:window-y="-8"
   inkscape:window-maximized="1"
   inkscape:current-layer="Capa_1" />

















<g
   id="g22"
   style="fill:url(#linearGradient23)"><g
     id="g2"
     style="fill:url(#linearGradient23)">
	<g
   id="g1"
   style="fill:url(#linearGradient23)">
		<path
   d="M105,271c-24.813,0-45,20.187-45,45s20.187,45,45,45s45-20.187,45-45S129.813,271,105,271z M105,331    c-8.271,0-15-6.729-15-15s6.729-15,15-15s15,6.729,15,15S113.271,331,105,331z"
   id="path1"
   style="fill:url(#linearGradient23)" />
	</g>
</g><g
     id="g4"
     style="fill:url(#linearGradient23)">
	<g
   id="g3"
   style="fill:url(#linearGradient23)">
		<path
   d="M437,331h-17.58c-6.192-17.458-22.865-30-42.42-30c-19.555,0-36.228,12.542-42.42,30H302c-16.542,0-30-13.458-30-30    s13.458-30,30-30h105c4.734,0,9.276-2.322,12.044-6.059l71.998-96.989C504.753,149.675,512,127.906,512,105    C512,47.103,464.897,0,407,0c-57.897,0-105,47.103-105,105c0,22.892,7.238,44.648,20.933,62.919L377.184,241H302    c-33.084,0-60,26.916-60,60s26.916,60,60,60h32.58c6.192,17.458,22.865,30,42.42,30s36.228-12.542,42.42-30H437    c24.813,0,45,20.187,45,45c0,24.935-20.607,46-45,46H329.42c-6.192-17.458-22.865-30-42.42-30c-19.555,0-36.228,12.542-42.42,30    H134.816l54.226-73.048C202.753,360.675,210,338.906,210,316c0-57.897-47.103-105-105-105C47.103,211,0,258.103,0,316    c0,22.906,7.247,44.675,20.913,62.892l71.835,96.769c2.707,3.83,7.212,6.34,12.24,6.34c0.056,0,0.111,0,0.168-0.001H244.58    c6.192,17.458,22.865,30,42.42,30s36.228-12.542,42.42-30H437c20.037,0,38.914-8.022,53.153-22.588    C504.241,444.999,512,426.03,512,406C512,364.645,478.355,331,437,331z M347.001,150.01c-0.015-0.02-0.029-0.04-0.045-0.06    C337.172,136.907,332,121.363,332,105c0-41.355,33.645-75,75-75c41.355,0,75,33.645,75,75c0,16.363-5.172,31.907-15.001,45.01    L407,230.834L347.001,150.01z M377,361c-8.271,0-15-6.729-15-15s6.729-15,15-15s15,6.729,15,15S385.271,361,377,361z M105,441.834    L44.956,360.95C35.172,347.907,30,332.363,30,316c0-41.355,33.645-75,75-75s75,33.645,75,75c0,16.363-5.172,31.907-15.001,45.01    L105,441.834z M287,482c-8.271,0-15-6.729-15-15s6.729-15,15-15s15,6.729,15,15S295.271,482,287,482z"
   id="path2"
   style="fill:url(#linearGradient23)" />
	</g>
</g><g
     id="g6"
     style="fill:url(#linearGradient23)">
	<g
   id="g5"
   style="fill:url(#linearGradient23)">
		<path
   d="M407,60c-24.813,0-45,20.187-45,45s20.187,45,45,45s45-20.187,45-45S431.813,60,407,60z M407,120c-8.271,0-15-6.729-15-15    s6.729-15,15-15s15,6.729,15,15S415.271,120,407,120z"
   id="path4"
   style="fill:url(#linearGradient23)" />
	</g>
</g><g
     id="g7"
     style="fill:url(#linearGradient23)">
</g><g
     id="g8"
     style="fill:url(#linearGradient23)">
</g><g
     id="g9"
     style="fill:url(#linearGradient23)">
</g><g
     id="g10"
     style="fill:url(#linearGradient23)">
</g><g
     id="g11"
     style="fill:url(#linearGradient23)">
</g><g
     id="g12"
     style="fill:url(#linearGradient23)">
</g><g
     id="g13"
     style="fill:url(#linearGradient23)">
</g><g
     id="g14"
     style="fill:url(#linearGradient23)">
</g><g
     id="g15"
     style="fill:url(#linearGradient23)">
</g><g
     id="g16"
     style="fill:url(#linearGradient23)">
</g><g
     id="g17"
     style="fill:url(#linearGradient23)">
</g><g
     id="g18"
     style="fill:url(#linearGradient23)">
</g><g
     id="g19"
     style="fill:url(#linearGradient23)">
</g><g
     id="g20"
     style="fill:url(#linearGradient23)">
</g><g
     id="g21"
     style="fill:url(#linearGradient23)">
</g></g>
</svg>
