<?xml version="1.0" encoding="UTF-8" standalone="no"?>
<svg
   viewBox="0 0 512 512"
   style="enable-background:new 0 0 512 512"
   xml:space="preserve"
   version="1.1"
   id="svg5"
   sodipodi:docname="play.svg"
   inkscape:version="1.3.2 (091e20e, 2023-11-25, custom)"
   xmlns:inkscape="http://www.inkscape.org/namespaces/inkscape"
   xmlns:sodipodi="http://sodipodi.sourceforge.net/DTD/sodipodi-0.dtd"
   xmlns:xlink="http://www.w3.org/1999/xlink"
   xmlns="http://www.w3.org/2000/svg"
   xmlns:svg="http://www.w3.org/2000/svg"><defs
     id="defs5"><linearGradient
       id="linearGradient5"
       inkscape:collect="always"><stop
         style="stop-color:#0084ff;stop-opacity:1;"
         offset="0"
         id="stop5" /><stop
         style="stop-color:#005aff;stop-opacity:1;"
         offset="1"
         id="stop6" /></linearGradient><linearGradient
       inkscape:collect="always"
       xlink:href="#linearGradient5"
       id="linearGradient6"
       x1="0"
       y1="256.00001"
       x2="512"
       y2="256.00001"
       gradientUnits="userSpaceOnUse" /></defs><sodipodi:namedview
     id="namedview5"
     pagecolor="#505050"
     bordercolor="#eeeeee"
     borderopacity="1"
     inkscape:showpageshadow="0"
     inkscape:pageopacity="0"
     inkscape:pagecheckerboard="0"
     inkscape:deskcolor="#505050"
     inkscape:zoom="1.5878906"
     inkscape:cx="256"
     inkscape:cy="256"
     inkscape:window-width="1920"
     inkscape:window-height="1009"
     inkscape:window-x="1912"
     inkscape:window-y="-8"
     inkscape:window-maximized="1"
     inkscape:current-layer="svg5" /><g
     id="g5"
     style="fill:url(#linearGradient6)"><path
       d="m508.354 376.9-17.663-141.298C484.734 187.941 444.021 152 395.989 152c-14.739 0-29.499 3.484-42.682 10.076-16.338 8.169-34.036 13.922-52.308 17.081V167c0-19.555-12.541-36.228-30-42.42V60c0-16.542 13.458-30 30-30s30 13.458 30 30v17c0 24.813 20.187 45 45 45s45-20.187 45-45V45c0-8.284-6.716-15-15-15s-15 6.716-15 15v32c0 8.271-6.729 15-15 15s-15-6.729-15-15V60c0-33.084-26.916-60-60-60s-60 26.916-60 60v64.58c-17.459 6.192-30 22.865-30 42.42v12.157c-18.271-3.159-35.97-8.912-52.308-17.081C145.509 155.484 130.75 152 116.011 152c-48.032 0-88.745 35.941-94.703 83.602L3.646 376.9A473.871 473.871 0 0 0 0 435.459C0 477.664 34.336 512 76.541 512a76.422 76.422 0 0 0 58.32-26.969l29.939-35.222A61.207 61.207 0 0 0 181 452c22.159 0 41.537-12.084 51.928-30h46.144c10.391 17.916 29.769 30 51.928 30 3.072 0 6.114-.233 9.106-.68l38.262 38.262C394.575 505.789 413.676 512 435.459 512 477.664 512 512 477.664 512 435.459c0-19.505-1.227-39.207-3.646-58.559zM241 167c0-8.271 6.729-15 15-15s15 6.729 15 15v14.955c-1.031.016-2.061.045-3.093.045h-23.814c-1.032 0-2.062-.028-3.093-.045V167zm-60 255c-16.804 0-31-13.738-31-30s14.196-30 31-30c16.542 0 30 13.458 30 30s-13.458 30-30 30zm150 0c-16.542 0-30-13.458-30-30s13.458-30 30-30c16.804 0 31 13.738 31 30s-14.196 30-31 30zm104.459 60c-13.808 0-25.419-3.173-35.877-13.632l-30.044-30.043C383.446 427.063 392 410.497 392 392c0-33.358-28.006-60-61-60-33.084 0-60 26.916-60 60h-30c0-33.084-26.916-60-60-60-33.02 0-61 26.676-61 60 0 16.053 6.476 31.177 18.235 42.585.024.023.049.044.073.068l-26.306 30.948A46.464 46.464 0 0 1 76.541 482C50.878 482 30 461.122 30 435.459c0-18.266 1.148-36.716 3.414-54.838l17.663-141.298c4.085-32.679 32-57.323 64.934-57.323a65.774 65.774 0 0 1 29.266 6.909C175.489 204.015 209.66 212 244.093 212h23.814c34.433 0 68.604-7.985 98.816-23.091A65.77 65.77 0 0 1 395.989 182c32.934 0 60.849 24.644 64.934 57.323l17.663 141.298A443.613 443.613 0 0 1 482 435.459C482 461.122 461.122 482 435.459 482z"
       id="path1"
       style="fill:url(#linearGradient6)" /><path
       d="M135 272h-15v-15c0-8.284-6.716-15-15-15s-15 6.716-15 15v15H75c-8.284 0-15 6.716-15 15s6.716 15 15 15h15v15c0 8.284 6.716 15 15 15s15-6.716 15-15v-15h15c8.284 0 15-6.716 15-15s-6.716-15-15-15zM226 272h-30c-8.284 0-15 6.716-15 15s6.716 15 15 15h30c8.284 0 15-6.716 15-15s-6.716-15-15-15zM316 272h-30c-8.284 0-15 6.716-15 15s6.716 15 15 15h30c8.284 0 15-6.716 15-15s-6.716-15-15-15z"
       id="path2"
       style="fill:url(#linearGradient6)" /><circle
       cx="407"
       cy="257"
       r="15"
       id="circle2"
       style="fill:url(#linearGradient6)" /><circle
       cx="437"
       cy="287"
       r="15"
       id="circle3"
       style="fill:url(#linearGradient6)" /><circle
       cx="407"
       cy="317"
       r="15"
       id="circle4"
       style="fill:url(#linearGradient6)" /><circle
       cx="377"
       cy="287"
       r="15"
       id="circle5"
       style="fill:url(#linearGradient6)" /></g></svg>
