<?xml version="1.0" encoding="iso-8859-1"?>
<!-- Generator: Adobe Illustrator 19.0.0, SVG Export Plug-In . SVG Version: 6.00 Build 0)  -->
<svg version="1.1" id="Capa_1" xmlns="http://www.w3.org/2000/svg" xmlns:xlink="http://www.w3.org/1999/xlink" x="0px" y="0px"
	 viewBox="0 0 512 512" style="enable-background:new 0 0 512 512;" xml:space="preserve">
<g>
	<g>
		<path d="M508.354,376.9l-17.663-141.298C484.734,187.941,444.021,152,395.989,152c-14.739,0-29.499,3.484-42.682,10.076
			c-16.338,8.169-34.036,13.922-52.308,17.081V167c0-19.555-12.541-36.228-30-42.42V60c0-16.542,13.458-30,30-30s30,13.458,30,30v17
			c0,24.813,20.187,45,45,45s45-20.187,45-45V45c0-8.284-6.716-15-15-15s-15,6.716-15,15v32c0,8.271-6.729,15-15,15s-15-6.729-15-15
			V60c0-33.084-26.916-60-60-60s-60,26.916-60,60v64.58c-17.459,6.192-30,22.865-30,42.42v12.157
			c-18.271-3.159-35.97-8.912-52.308-17.081C145.509,155.484,130.75,152,116.011,152c-48.032,0-88.745,35.941-94.703,83.602
			L3.646,376.9C1.227,396.252,0,415.954,0,435.459C0,477.664,34.336,512,76.541,512c22.494,0,43.751-9.83,58.32-26.969
			l29.939-35.222c5.226,1.433,10.662,2.191,16.2,2.191c22.159,0,41.537-12.084,51.928-30h46.144c10.391,17.916,29.769,30,51.928,30
			c3.072,0,6.114-0.233,9.106-0.68l38.262,38.262C394.575,505.789,413.676,512,435.459,512C477.664,512,512,477.664,512,435.459
			C512,415.954,510.773,396.252,508.354,376.9z M241,167c0-8.271,6.729-15,15-15s15,6.729,15,15v14.955
			c-1.031,0.016-2.061,0.045-3.093,0.045h-23.814c-1.032,0-2.062-0.028-3.093-0.045V167z M181,422c-16.804,0-31-13.738-31-30
			c0-16.262,14.196-30,31-30c16.542,0,30,13.458,30,30S197.542,422,181,422z M331,422c-16.542,0-30-13.458-30-30s13.458-30,30-30
			c16.804,0,31,13.738,31,30C362,408.262,347.804,422,331,422z M435.459,482c-13.808,0-25.419-3.173-35.877-13.632l-30.044-30.043
			C383.446,427.063,392,410.497,392,392c0-33.358-28.006-60-61-60c-33.084,0-60,26.916-60,60h-30c0-33.084-26.916-60-60-60
			c-33.02,0-61,26.676-61,60c0,16.053,6.476,31.177,18.235,42.585c0.024,0.023,0.049,0.044,0.073,0.068l-26.306,30.948
			C103.144,476.023,90.219,482,76.541,482C50.878,482,30,461.122,30,435.459c0-18.266,1.148-36.716,3.414-54.838l17.663-141.298
			c4.085-32.679,32-57.323,64.934-57.323c10.106,0,20.226,2.389,29.266,6.909C175.489,204.015,209.66,212,244.093,212h23.814
			c34.433,0,68.604-7.985,98.816-23.091c9.04-4.52,19.159-6.909,29.266-6.909c32.934,0,60.849,24.644,64.934,57.323l17.663,141.298
			c2.266,18.122,3.414,36.572,3.414,54.838C482,461.122,461.122,482,435.459,482z"/>
	</g>
</g>
<g>
	<g>
		<path d="M135,272h-15v-15c0-8.284-6.716-15-15-15s-15,6.716-15,15v15H75c-8.284,0-15,6.716-15,15s6.716,15,15,15h15v15
			c0,8.284,6.716,15,15,15s15-6.716,15-15v-15h15c8.284,0,15-6.716,15-15S143.284,272,135,272z"/>
	</g>
</g>
<g>
	<g>
		<path d="M226,272h-30c-8.284,0-15,6.716-15,15s6.716,15,15,15h30c8.284,0,15-6.716,15-15S234.284,272,226,272z"/>
	</g>
</g>
<g>
	<g>
		<path d="M316,272h-30c-8.284,0-15,6.716-15,15s6.716,15,15,15h30c8.284,0,15-6.716,15-15S324.284,272,316,272z"/>
	</g>
</g>
<g>
	<g>
		<circle cx="407" cy="257" r="15"/>
	</g>
</g>
<g>
	<g>
		<circle cx="437" cy="287" r="15"/>
	</g>
</g>
<g>
	<g>
		<circle cx="407" cy="317" r="15"/>
	</g>
</g>
<g>
	<g>
		<circle cx="377" cy="287" r="15"/>
	</g>
</g>
<g>
</g>
<g>
</g>
<g>
</g>
<g>
</g>
<g>
</g>
<g>
</g>
<g>
</g>
<g>
</g>
<g>
</g>
<g>
</g>
<g>
</g>
<g>
</g>
<g>
</g>
<g>
</g>
<g>
</g>
</svg>
