<?xml version="1.0" encoding="UTF-8" standalone="no"?>
<svg
   viewBox="0 -31 512 512"
   version="1.1"
   id="svg1"
   sodipodi:docname="portfolio.svg"
   inkscape:version="1.3.2 (091e20e, 2023-11-25, custom)"
   xmlns:inkscape="http://www.inkscape.org/namespaces/inkscape"
   xmlns:sodipodi="http://sodipodi.sourceforge.net/DTD/sodipodi-0.dtd"
   xmlns:xlink="http://www.w3.org/1999/xlink"
   xmlns="http://www.w3.org/2000/svg"
   xmlns:svg="http://www.w3.org/2000/svg">
  <defs
     id="defs1">
    <linearGradient
       id="linearGradient1"
       inkscape:collect="always">
      <stop
         style="stop-color:#0084ff;stop-opacity:1;"
         offset="0"
         id="stop1" />
      <stop
         style="stop-color:#005aff;stop-opacity:1;"
         offset="1"
         id="stop2" />
    </linearGradient>
    <linearGradient
       inkscape:collect="always"
       xlink:href="#linearGradient1"
       id="linearGradient2"
       x1="0"
       y1="225"
       x2="512"
       y2="225"
       gradientUnits="userSpaceOnUse" />
  </defs>
  <sodipodi:namedview
     id="namedview1"
     pagecolor="#505050"
     bordercolor="#eeeeee"
     borderopacity="1"
     inkscape:showpageshadow="0"
     inkscape:pageopacity="0"
     inkscape:pagecheckerboard="0"
     inkscape:deskcolor="#505050"
     inkscape:zoom="1.5878906"
     inkscape:cx="256"
     inkscape:cy="256"
     inkscape:window-width="1920"
     inkscape:window-height="1009"
     inkscape:window-x="1912"
     inkscape:window-y="-8"
     inkscape:window-maximized="1"
     inkscape:current-layer="svg1" />
  <path
     d="m497.09375 60.003906c-.03125 0-.0625-.003906-.09375-.003906h-136v-15c0-24.8125-20.1875-45-45-45h-120c-24.8125 0-45 20.1875-45 45v15h-136c-8.351562 0-15 6.84375-15 15v330c0 24.8125 20.1875 45 45 45h422c24.8125 0 45-20.1875 45-45v-329.683594c0-.019531 0-.039062 0-.058594-.574219-9.851562-6.632812-15.199218-14.90625-15.253906zm-316.09375-15.003906c0-8.269531 6.730469-15 15-15h120c8.269531 0 15 6.730469 15 15v15h-150zm295.1875 45-46.582031 139.742188c-2.042969 6.136718-7.761719 10.257812-14.226563 10.257812h-84.378906v-15c0-8.285156-6.714844-15-15-15h-120c-8.285156 0-15 6.714844-15 15v15h-84.378906c-6.464844 0-12.183594-4.121094-14.226563-10.257812l-46.582031-139.742188zm-175.1875 150v30h-90v-30zm181 165c0 8.269531-6.730469 15-15 15h-422c-8.269531 0-15-6.730469-15-15v-237.566406l23.933594 71.796875c6.132812 18.40625 23.289062 30.769531 42.6875 30.769531h84.378906v15c0 8.285156 6.714844 15 15 15h120c8.285156 0 15-6.714844 15-15v-15h84.378906c19.398438 0 36.554688-12.363281 42.6875-30.769531l23.933594-71.796875zm0 0"
     id="path1"
     style="fill:url(#linearGradient2)" />
</svg>
