<svg id="Capa_1" enable-background="new 0 0 512 512" height="512" viewBox="0 0 512 512" width="512" xmlns="http://www.w3.org/2000/svg"><g><path d="m302 277c0-57.897-47.103-105-105-105s-105 47.103-105 105 47.103 105 105 105 105-47.103 105-105zm-180 0c0-41.355 33.645-75 75-75s75 33.645 75 75-33.645 75-75 75-75-33.645-75-75z"/><path d="m442 73.352v-2.295c0-17.55 8.718-33.84 23.32-43.575 6.894-4.595 8.756-13.908 4.16-20.801-4.595-6.893-13.908-8.756-20.801-4.16-22.967 15.312-36.679 40.933-36.679 68.536v2.295c-39.736 7.108-70 41.898-70 83.648v22.137c-31.484-46.508-84.729-77.137-145-77.137-96.495 0-175 78.505-175 175 0 60.281 30.644 113.523 77.167 145h-24.167c-41.355 0-75 33.645-75 75 0 8.284 6.716 15 15 15h302c85.468 0 155-69.532 155-155v-127.979c24.574-15.406 40-42.72 40-72.021 0-41.749-30.264-76.539-70-83.648zm-390 203.648c0-79.953 65.047-145 145-145s145 65.047 145 145-65.047 145-145 145-145-65.047-145-145zm398.556-70.372c-5.227 2.486-8.556 7.758-8.556 13.545v136.827c0 68.925-56.075 125-125 125h-284.43c6.19-17.461 22.873-30 42.43-30h122c96.495 0 175-78.505 175-175v-120c0-30.321 24.663-54.99 54.981-55 .006 0 .012.001.019.001s.012-.001.019-.001c30.318.01 54.981 24.679 54.981 55 0 21.06-12.343 40.539-31.444 49.628z"/><path d="m227 292c8.284 0 15-6.716 15-15s-6.716-15-15-15h-15v-15c0-8.284-6.716-15-15-15s-15 6.716-15 15v30c0 8.284 6.716 15 15 15z"/><circle cx="437" cy="157" r="15"/></g></svg>