<svg id="Capa_1" enable-background="new 0 0 512 512" height="512" viewBox="0 0 512 512" width="512" xmlns="http://www.w3.org/2000/svg"><g><path d="m502.445 202.023-31.627-12.323c-4.143-13.466-9.508-26.454-16.017-38.769l13.629-31.028c2.487-5.661 1.245-12.268-3.127-16.639l-56.569-56.569c-4.372-4.373-10.98-5.613-16.639-3.127l-31.028 13.629c-12.315-6.509-25.303-11.874-38.769-16.017l-12.321-31.625c-2.245-5.762-7.794-9.555-13.977-9.555h-80c-6.183 0-11.732 3.793-13.977 9.555l-12.323 31.627c-13.466 4.143-26.453 9.508-38.769 16.017l-31.028-13.629c-5.662-2.487-12.268-1.245-16.639 3.127l-56.568 56.569c-4.372 4.372-5.614 10.978-3.127 16.639l13.629 31.028c-6.508 12.315-11.874 25.303-16.017 38.769l-31.626 12.321c-5.762 2.245-9.555 7.794-9.555 13.977v80c0 6.183 3.793 11.732 9.555 13.977l31.627 12.323c4.143 13.466 9.508 26.453 16.017 38.769l-13.629 31.027c-2.487 5.661-1.245 12.267 3.127 16.639l56.568 56.568c4.373 4.373 10.979 5.613 16.639 3.127l31.028-13.629c12.315 6.508 25.302 11.874 38.769 16.017l12.323 31.627c2.244 5.762 7.793 9.555 13.976 9.555h80c6.183 0 11.732-3.793 13.977-9.555l12.323-31.627c13.466-4.143 26.454-9.508 38.769-16.017l31.028 13.629c5.662 2.488 12.267 1.245 16.639-3.127l56.569-56.568c4.372-4.372 5.614-10.978 3.127-16.639l-13.629-31.028c6.509-12.315 11.874-25.303 16.017-38.769l31.627-12.323c5.76-2.244 9.553-7.793 9.553-13.976v-80c0-6.183-3.793-11.732-9.555-13.977zm-20.445 83.723-28.975 11.289c-4.435 1.728-7.786 5.458-9.032 10.051-4.374 16.13-10.737 31.527-18.912 45.764-2.372 4.13-2.641 9.141-.726 13.502l12.484 28.42-42.067 42.067-28.421-12.483c-4.361-1.916-9.372-1.646-13.502.726-14.236 8.174-29.633 14.538-45.764 18.912-4.593 1.246-8.323 4.597-10.051 9.032l-11.288 28.974h-59.492l-11.289-28.975c-1.728-4.435-5.458-7.786-10.051-9.032-16.13-4.375-31.528-10.738-45.764-18.912-4.131-2.373-9.142-2.642-13.502-.726l-28.421 12.483-42.067-42.067 12.483-28.421c1.916-4.36 1.646-9.372-.726-13.501-8.175-14.237-14.538-29.634-18.912-45.764-1.246-4.593-4.597-8.323-9.032-10.051l-28.973-11.288v-59.492l28.975-11.289c4.435-1.728 7.786-5.458 9.032-10.051 4.375-16.13 10.737-31.528 18.912-45.765 2.372-4.13 2.641-9.141.726-13.502l-12.483-28.42 42.067-42.067 28.421 12.483c4.36 1.915 9.371 1.646 13.502-.726 14.236-8.175 29.633-14.538 45.764-18.912 4.593-1.246 8.323-4.597 10.051-9.032l11.287-28.973h59.492l11.289 28.975c1.728 4.435 5.458 7.786 10.051 9.032 16.13 4.374 31.527 10.737 45.764 18.912 4.13 2.372 9.142 2.641 13.502.726l28.421-12.483 42.067 42.067-12.484 28.42c-1.916 4.361-1.646 9.372.726 13.502 8.175 14.237 14.538 29.634 18.912 45.765 1.246 4.593 4.597 8.323 9.032 10.051l28.974 11.287z"/><path d="m256 91c-90.981 0-165 74.019-165 165s74.019 165 165 165 165-74.019 165-165-74.019-165-165-165zm120 180h14.162c-2.888 26-13.186 49.792-28.733 69.216l-9.97-9.969c-5.857-5.858-15.355-5.858-21.213 0s-5.858 15.355 0 21.213l9.97 9.969c-19.424 15.547-43.216 25.846-69.216 28.733v-14.162c0-8.284-6.716-15-15-15s-15 6.716-15 15v14.162c-26-2.888-49.792-13.186-69.216-28.733l9.97-9.969c5.858-5.858 5.858-15.355 0-21.213-5.857-5.858-15.355-5.858-21.213 0l-9.97 9.969c-15.547-19.424-25.846-43.216-28.733-69.216h14.162c8.284 0 15-6.716 15-15s-6.716-15-15-15h-14.162c2.888-26 13.186-49.792 28.733-69.216l9.97 9.969c5.858 5.858 15.355 5.858 21.213 0s5.858-15.355 0-21.213l-9.97-9.969c19.424-15.547 43.216-25.846 69.216-28.733v14.162c0 8.284 6.716 15 15 15s15-6.716 15-15v-14.162c26 2.888 49.792 13.186 69.216 28.733l-9.969 9.969c-5.858 5.858-5.858 15.355 0 21.213s15.355 5.858 21.213 0l9.97-9.969c15.546 19.424 25.845 43.216 28.732 69.216h-14.162c-8.284 0-15 6.716-15 15s6.716 15 15 15z"/><path d="m306 241h-35v-35c0-8.284-6.716-15-15-15s-15 6.716-15 15v50c0 8.284 6.716 15 15 15h50c8.284 0 15-6.716 15-15s-6.716-15-15-15z"/></g></svg>