<svg id="Layer_1" enable-background="new 0 0 512 512" height="512" viewBox="0 0 512 512" width="512" xmlns="http://www.w3.org/2000/svg"><path d="m505.409 131.112c-4.122-2.79-9.358-3.354-13.98-1.506l-140.096 56.038v-42.111c0-25.989-21.144-47.133-47.133-47.133h-257.066c-25.989 0-47.134 21.144-47.134 47.133v224.934c0 25.989 21.145 47.133 47.134 47.133h257.066c25.989 0 47.133-21.144 47.133-47.133v-42.111l140.096 56.038c1.798.719 3.688 1.073 5.57 1.073 2.956 0 5.892-.874 8.41-2.579 4.122-2.791 6.591-7.443 6.591-12.421v-224.934c0-4.977-2.469-9.63-6.591-12.421zm-184.076 237.355c0 9.447-7.686 17.133-17.133 17.133h-257.066c-9.447 0-17.134-7.686-17.134-17.133v-224.934c0-9.447 7.687-17.133 17.134-17.133h257.066c9.447 0 17.133 7.686 17.133 17.133zm160.667-22.155-130.667-52.267v-76.09l130.667-52.267z"/></svg>